<?xml version="1.0" encoding="utf-8"?>
<!-- Generator: Adobe Illustrator 24.3.0, SVG Export Plug-In . SVG Version: 6.00 Build 0)  -->
<svg version="1.1" id="Layer_1" xmlns="http://www.w3.org/2000/svg" xmlns:xlink="http://www.w3.org/1999/xlink" x="0px" y="0px"
	 viewBox="0 0 947.3 443.2" style="enable-background:new 0 0 947.3 443.2;" xml:space="preserve">
<style type="text/css">
	.st0{fill:#232323;}
	.st1{fill:#FFFFFF;}
	.st2{fill:#232323;stroke:#232323;stroke-width:2.2478;stroke-miterlimit:10;}
</style>
<rect y="166.1" class="st0" width="947.3" height="277.2"/>
<g>
	<polygon class="st1" points="755.6,295 755.6,286 715.4,286 715.4,318.9 755.6,318.9 755.6,309.8 726,309.8 726,306.7 751.6,306.7 
		751.6,297.8 726,297.8 726,295 	"/>
	<path class="st1" d="M334.4,304.2L334.4,304.2c2.1-2.1,3.1-4.5,3.1-7.3c0-3-1.2-5.6-3.5-7.8c-2.4-2.1-5.2-3.2-8.4-3.2h-31.4v5.6
		l-3.3,3.4l-3.9,4l-2.1,2.1l-1.4,1.4l2.2,2l2.1,1.9l3.9,3.6l2.5,2.2v6.8h10.6v-11.2h12.4l9.2,11.2h12.8l-10.3-11.6
		C331,306.6,332.9,305.6,334.4,304.2z M324.7,298.9l-19.8-0.1v-3.7h19.8c0.7,0,1.2,0.2,1.5,0.5c0.4,0.4,0.6,0.8,0.6,1.4
		c0,0.5-0.2,1-0.6,1.4C325.9,298.7,325.4,298.9,324.7,298.9z"/>
	<path class="st1" d="M387.2,288.8c-2.1-1.9-4.8-3-7.7-3h-24.1c-3,0-5.6,1-7.8,3c-2.2,2-3.3,4.5-3.3,7.2v12.8c0,2.8,1.1,5.3,3.3,7.2
		c2.2,2,4.8,3,7.7,3h24.1c3,0,5.6-1,7.7-3c2.2-2,3.3-4.3,3.3-7.2V296C390.5,293.1,389.4,290.8,387.2,288.8z M379.9,297.4v9.9
		c0,0.5-0.1,1.2-0.8,1.8c-0.5,0.5-1.1,0.7-2,0.7h-19.1c-0.9,0-1.5-0.2-2.1-0.8c-0.6-0.5-0.8-1.2-0.8-1.7v-9.9c0-0.7,0.2-1.2,0.8-1.7
		c0.6-0.5,1.3-0.8,2.1-0.8H377c0.9,0,1.5,0.2,2.1,0.8C379.6,296.2,379.9,296.7,379.9,297.4z"/>
	<path class="st1" d="M415.7,286l-20.9,33h11.7l4.3-6.7h19.6l4.2,6.7h11.8l-21.1-33H415.7z M424.8,303.4h-8.5l4.2-6.7L424.8,303.4z"
		/>
	<path class="st1" d="M490,287.2c-1.7-0.8-3.6-1.3-5.6-1.3h-33.8v33h33.8c2.2,0,4.1-0.4,5.6-1.3c1.8-0.9,3.2-2.1,4.4-3.6
		c1.2-1.5,1.7-3.3,1.7-5.2V296c0-1.9-0.6-3.7-1.7-5.2C493.4,289.3,491.9,288.1,490,287.2z M461.3,295h21.3c0.9,0,1.5,0.2,2.1,0.8
		c0.5,0.5,0.8,1,0.8,1.7v9.9c0,0.5-0.1,1.2-0.8,1.8c-0.5,0.5-1.1,0.7-2,0.7h-21.3V295z"/>
	<polygon class="st1" points="550.5,286 532.4,286 513.3,298.2 513.3,286 502.7,286 502.7,318.9 513.3,318.9 513.3,304.9 
		534.1,318.9 552.1,318.9 525.1,301.5 	"/>
	<path class="st1" d="M594.8,304.2L594.8,304.2c2.1-2.1,3.1-4.5,3.1-7.3c0-3-1.2-5.6-3.5-7.8c-2.4-2.1-5.2-3.2-8.4-3.2h-31.3v33
		h10.6v-11.2h12.4l9.2,11.2h12.8l-10.3-11.7C591.4,306.6,593.2,305.6,594.8,304.2z M587.2,297c0,0.5-0.2,1-0.6,1.4
		c-0.3,0.3-0.8,0.5-1.5,0.5l-19.8-0.1v-3.7h19.8c0.7,0,1.2,0.2,1.5,0.5C587,296,587.2,296.4,587.2,297z"/>
	<path class="st1" d="M647.7,288.8c-2.1-1.9-4.8-3-7.7-3h-24.1c-3,0-5.6,1-7.7,3c-2.2,2-3.3,4.5-3.3,7.2v12.8c0,2.8,1.1,5.3,3.3,7.2
		c2.2,2,4.8,3,7.7,3H640c3,0,5.6-1,7.7-3c2.2-2,3.3-4.3,3.3-7.2l0-12.8C650.8,293.1,649.8,290.8,647.7,288.8z M640.2,297.4v9.9
		c0,0.5-0.1,1.2-0.8,1.8c-0.5,0.5-1.1,0.7-2,0.7h-19.1c-0.9,0-1.5-0.2-2.1-0.8c-0.6-0.5-0.8-1.2-0.8-1.7v-9.9c0-0.7,0.2-1.2,0.8-1.7
		c0.6-0.5,1.3-0.8,2.1-0.8h19.1c0.9,0,1.5,0.2,2.1,0.8C640,296.2,640.2,296.7,640.2,297.4z"/>
	<polygon class="st1" points="683.1,306.7 667.9,286 657.5,286 657.5,318.9 668.1,318.9 668.1,301.6 679,316.1 687.3,316.1 
		698.2,301.6 698.2,318.9 708.8,318.9 708.8,286 698.4,286 	"/>
	<path class="st1" d="M283,298.8l3.9-4H282H180.9c9.9,2.5,20.2,3.8,30.3,4h3.6h66.6H283z"/>
	<path class="st1" d="M279.6,302.3l1.4-1.4h-62.7c11.5,2.3,23.3,3.4,34.9,3.4h0.6h28L279.6,302.3z"/>
	<path class="st1" d="M257.2,306.2c10.1,2,20.3,3.3,30.6,3.6l-3.9-3.6H257.2z"/>
</g>
<g>
	<polygon class="st2" points="755.5,60.3 755.5,53.6 717.6,53.6 717.6,84.3 755.5,84.3 755.5,77.5 725.9,77.5 725.9,72.1 
		751.5,72.1 751.5,65.5 725.9,65.5 725.9,60.3 	"/>
	<g>
		<path class="st0" d="M335.4,70.7L335.4,70.7c2.1-2.1,3.1-4.5,3.1-7.3c0-3-1.2-5.6-3.5-7.8c-2.4-2.1-5.2-3.2-8.4-3.2h-31.4v5.6
			l-3.3,3.4l-3.9,4l-2.1,2.1l-1.4,1.4l2.2,2l2.1,1.9l3.9,3.6l2.5,2.2v6.8h10.6V74.2h12.4l9.2,11.2h12.8L330,73.7
			C332,73.2,333.9,72.2,335.4,70.7z M327.2,64.9c-0.3,0.3-0.8,0.5-1.5,0.5l-19.8-0.1v-3.7h19.8c0.7,0,1.2,0.2,1.5,0.5
			c0.4,0.4,0.6,0.8,0.6,1.4C327.8,64,327.6,64.5,327.2,64.9z"/>
		<path class="st0" d="M388.2,55.3c-2.1-1.9-4.8-3-7.7-3h-24.1c-3,0-5.6,1-7.7,3c-2.2,2-3.3,4.5-3.3,7.2v12.8c0,2.8,1.1,5.3,3.3,7.2
			c2.2,2,4.8,3,7.7,3h24.1c3,0,5.6-1,7.7-3c2.2-2,3.3-4.3,3.3-7.2V62.6C391.5,59.6,390.5,57.3,388.2,55.3z M380.9,73.8
			c0,0.5-0.1,1.2-0.8,1.8c-0.5,0.5-1.1,0.7-2,0.7H359c-0.9,0-1.5-0.2-2.1-0.8c-0.6-0.5-0.8-1.2-0.8-1.7V64c0-0.7,0.2-1.2,0.8-1.7
			c0.6-0.5,1.3-0.8,2.1-0.8h19.1c0.9,0,1.5,0.2,2.1,0.8c0.5,0.5,0.8,1,0.8,1.7V73.8z"/>
		<path class="st0" d="M416.8,52.5l-20.9,33h11.7l4.3-6.7h19.6l4.2,6.7h11.8l-21.1-33H416.8z M417.3,69.9l4.2-6.7l4.2,6.7H417.3z"/>
		<path class="st0" d="M491.1,53.8c-1.7-0.8-3.6-1.3-5.6-1.3h-33.8v33h33.8c2.2,0,4.1-0.4,5.6-1.3c1.8-0.9,3.2-2.1,4.4-3.6
			c1.2-1.5,1.7-3.3,1.7-5.2V62.6c0-1.9-0.6-3.7-1.7-5.2C494.4,55.8,493,54.7,491.1,53.8z M486.5,73.8c0,0.5-0.1,1.2-0.8,1.8
			c-0.5,0.5-1.1,0.7-2,0.7h-21.3V61.5h21.3c0.9,0,1.5,0.2,2.1,0.8c0.5,0.5,0.8,1,0.8,1.7V73.8z"/>
		<polygon class="st0" points="551.6,52.5 533.4,52.5 514.4,64.7 514.4,52.5 503.8,52.5 503.8,85.4 514.4,85.4 514.4,71.4 
			535.1,85.4 553.1,85.4 526.2,68.1 		"/>
		<path class="st0" d="M595.8,70.7L595.8,70.7c2.1-2.1,3.1-4.5,3.1-7.3c0-3-1.2-5.6-3.5-7.8c-2.4-2.1-5.2-3.2-8.4-3.2h-31.3v33h10.6
			V74.2h12.4l9.2,11.2h12.8l-10.3-11.7C592.5,73.1,594.3,72.1,595.8,70.7z M587.6,64.9c-0.3,0.3-0.8,0.5-1.5,0.5l-19.8-0.1v-3.7
			h19.8c0.7,0,1.2,0.2,1.5,0.5c0.4,0.4,0.6,0.8,0.6,1.4C588.2,64,588,64.5,587.6,64.9z"/>
		<path class="st0" d="M648.8,55.3c-2.1-1.9-4.8-3-7.8-3h-24.1c-3,0-5.6,1-7.7,3c-2.2,2-3.3,4.5-3.3,7.2v12.8c0,2.8,1.1,5.3,3.3,7.2
			c2.2,2,4.8,3,7.7,3H641c3,0,5.6-1,7.7-3c2.2-2,3.3-4.3,3.3-7.2l0-12.8C651.9,59.6,650.8,57.3,648.8,55.3z M641.3,73.8
			c0,0.5-0.1,1.2-0.8,1.8c-0.5,0.5-1.1,0.7-2,0.7h-19.1c-0.9,0-1.5-0.2-2.1-0.8c-0.6-0.5-0.8-1.2-0.8-1.7V64c0-0.7,0.2-1.2,0.8-1.7
			c0.6-0.5,1.3-0.8,2.1-0.8h19.1c0.9,0,1.5,0.2,2.1,0.8c0.5,0.5,0.8,1,0.8,1.7V73.8z"/>
		<polygon class="st0" points="699.4,52.5 684.2,73.2 668.9,52.5 658.5,52.5 658.5,85.4 669.1,85.4 669.1,68.1 680,82.6 688.3,82.6 
			699.2,68.1 699.2,85.4 709.8,85.4 709.8,52.5 		"/>
		<path class="st0" d="M284.1,65.3l3.9-4h-4.9H181.9c9.9,2.5,20.2,3.8,30.3,4h3.6h66.6H284.1z"/>
		<path class="st0" d="M280.6,68.8l1.4-1.4h-62.7c11.5,2.3,23.3,3.4,34.9,3.4h0.6h28L280.6,68.8z"/>
		<path class="st0" d="M258.3,72.8c10.1,2,20.3,3.3,30.6,3.6l-3.9-3.6H258.3z"/>
	</g>
</g>
</svg>
