<?xml version="1.0" encoding="utf-8"?>
<!-- Generator: Adobe Illustrator 24.3.0, SVG Export Plug-In . SVG Version: 6.00 Build 0)  -->
<svg version="1.1" id="Layer_1" xmlns="http://www.w3.org/2000/svg" xmlns:xlink="http://www.w3.org/1999/xlink" x="0px" y="0px"
	 viewBox="0 0 525 54" style="enable-background:new 0 0 525 54;" xml:space="preserve">
<style type="text/css">
	.st0{fill:#FFFFFF;stroke:#FFFFFF;stroke-width:1.932;stroke-miterlimit:10;}
	.st1{fill:#FFFFFF;}
</style>
<path class="st0" d="M130.6,30c1.6-1.6,2.4-3.4,2.4-5.6c0-2.3-0.9-4.3-2.7-6c-1.8-1.6-4-2.5-6.6-2.5h-26v26.4h7.2v-9.6H117l7.9,9.6
	h8.4l-8.6-9.7C127,32.4,129,31.5,130.6,30z M104.9,27v-5.1h18c0.8,0,1.5,0.2,2,0.7s0.8,1.1,0.8,1.9c0,0.7-0.3,1.4-0.8,1.9
	s-1.2,0.7-2,0.7L104.9,27z"/>
<path class="st0" d="M176,18.2c-1.6-1.5-3.7-2.3-6-2.3h-20.7c-2.4,0-4.4,0.8-6,2.3s-2.5,3.3-2.5,5.5v11c0,2.1,0.8,4,2.5,5.5
	s3.7,2.3,6,2.3H170c2.4,0,4.4-0.8,6-2.3c1.7-1.5,2.5-3.3,2.5-5.5v-11C178.5,21.5,177.7,19.7,176,18.2z M171.3,33.4
	c0,0.8-0.3,1.6-1,2.2c-0.6,0.6-1.4,0.9-2.4,0.9h-16.4c-1,0-1.8-0.3-2.4-0.9c-0.7-0.6-1-1.4-1-2.2v-8.5c0-0.9,0.3-1.6,1-2.2
	s1.5-0.9,2.4-0.9h16.4c1,0,1.8,0.3,2.4,0.9c0.7,0.6,1,1.3,1,2.2V33.4z"/>
<path class="st0" d="M201.7,16L185,42.4h7.8l3.7-5.8h17.9l3.6,5.8h7.8L208.9,16H201.7z M199.9,31l5.4-8.5l5.4,8.5H199.9z"/>
<path class="st0" d="M264.6,17c-1.4-0.7-2.9-1-4.4-1h-28.1v26.4h28.1c1.6,0,3.1-0.3,4.4-1c1.4-0.7,2.5-1.6,3.4-2.8s1.3-2.5,1.3-3.9
	v-11c0-1.4-0.4-2.7-1.3-3.9C267.2,18.6,266.1,17.7,264.6,17z M262.1,33.4c0,0.8-0.3,1.6-1,2.2c-0.6,0.6-1.4,0.9-2.4,0.9h-19.3V21.8
	h19.3c1,0,1.8,0.3,2.4,0.9c0.7,0.6,1,1.3,1,2.2V33.4z"/>
<polygon class="st0" points="313.6,16 301.7,16 284.1,27.3 284.1,16 276.9,16 276.9,42.4 284.1,42.4 284.1,29.5 303.2,42.4 
	315.1,42.4 293.4,28.4 "/>
<path class="st0" d="M354.4,30c1.6-1.6,2.4-3.4,2.4-5.6c0-2.3-0.9-4.3-2.7-6c-1.8-1.6-4-2.5-6.6-2.5h-25.9v26.4h7.2v-9.6h12.1
	l7.9,9.6h8.4l-8.6-9.7C350.8,32.4,352.8,31.5,354.4,30z M328.7,27v-5.1h18c0.8,0,1.5,0.2,2,0.7s0.8,1.1,0.8,1.9
	c0,0.7-0.3,1.4-0.8,1.9s-1.2,0.7-2,0.7L328.7,27z"/>
<path class="st0" d="M399.9,18.2c-1.6-1.5-3.7-2.3-6-2.3h-20.7c-2.4,0-4.4,0.8-6,2.3s-2.5,3.3-2.5,5.5v11c0,2.1,0.8,4,2.5,5.5
	s3.7,2.3,6,2.3h20.7c2.4,0,4.4-0.8,6-2.3c1.7-1.5,2.5-3.3,2.5-5.5v-11C402.3,21.5,401.5,19.7,399.9,18.2z M395.1,33.4
	c0,0.8-0.3,1.6-1,2.2c-0.6,0.6-1.4,0.9-2.4,0.9h-16.4c-1,0-1.8-0.3-2.4-0.9c-0.7-0.6-1-1.4-1-2.2v-8.5c0-0.9,0.3-1.6,1-2.2
	s1.5-0.9,2.4-0.9h16.4c1,0,1.8,0.3,2.4,0.9c0.7,0.6,1,1.3,1,2.2V33.4z"/>
<polygon class="st0" points="431,34.5 417.4,16 409.9,16 409.9,42.4 417.1,42.4 417.1,25.6 427.9,40 434.1,40 444.9,25.6 
	444.9,42.4 452.1,42.4 452.1,16 444.6,16 "/>
<polygon class="st0" points="492.3,21.8 492.3,16 459.7,16 459.7,42.4 492.3,42.4 492.3,36.5 466.9,36.5 466.9,31.9 488.9,31.9 
	488.9,26.2 466.9,26.2 466.9,21.8 "/>
<g>
	<path class="st1" d="M102.3,26.1c0-1.1,0.2-2.3,0.5-3.4h-5.1v3.4H102.3z"/>
	<path class="st1" d="M86.3,22.6H-0.7c8.5,2.1,17.4,3.3,26.1,3.4h3.1h57.3h1.3l3.4-3.4H86.3z"/>
	<path class="st1" d="M102.3,30.8h0.3c-0.3-1-0.5-2-0.5-3h-4.4v3H102.3z"/>
	<path class="st1" d="M85.3,27.9H31.5c9.8,2,20,3,30,3H62h24l-1.9-1.7L85.3,27.9z"/>
	<path class="st1" d="M64.9,32.5c8.7,1.7,17.5,2.8,26.3,3.1l-3.4-3.1H64.9z"/>
	<path class="st1" d="M103.3,32.3h-1.5v0.2h-4.1v3.1c1.1,0,2.2,0,3.3,0h0.7h3.3C104.2,34.6,103.6,33.4,103.3,32.3z"/>
	<polygon class="st1" points="97.2,22.6 97.7,22.6 97.7,18.7 93.9,22.6 96,22.6 	"/>
	<path class="st1" d="M94.6,35.5l3.1,2.8v-2.8c-0.5,0-1,0-1.5,0C95.7,35.6,95.1,35.5,94.6,35.5z"/>
	<polygon class="st1" points="97.7,32.5 97.7,30.8 94.1,30.8 89.4,30.8 91.2,32.5 93.9,32.5 	"/>
	<polygon class="st1" points="97.7,27.9 97.7,26.1 97.4,26.1 90.5,26.1 88.7,27.9 93.6,27.9 	"/>
	<polygon class="st1" points="97.7,26.1 97.7,22.6 97.2,22.6 96,22.6 93.9,22.6 90.5,26.1 97.4,26.1 	"/>
	<polygon class="st1" points="97.7,30.8 97.7,27.9 93.6,27.9 88.7,27.9 87.5,29.1 89.4,30.8 94.1,30.8 	"/>
	<path class="st1" d="M93.9,32.5h-2.7l3.4,3.1c0.5,0,1.1,0,1.6,0c0.5,0,1,0,1.5,0v-3.1H93.9z"/>
</g>
</svg>
