<?xml version="1.0" encoding="utf-8"?>
<!-- Generator: Adobe Illustrator 25.2.3, SVG Export Plug-In . SVG Version: 6.00 Build 0)  -->
<svg version="1.1" id="Layer_1" xmlns="http://www.w3.org/2000/svg" xmlns:xlink="http://www.w3.org/1999/xlink" x="0px" y="0px"
	 viewBox="0 0 525 142" style="enable-background:new 0 0 525 142;" xml:space="preserve">
<path d="M34.4,20.5v101.4H10.2V20.5H34.4z M113.3,40.3v20.4c-1.6-0.3-3.3-0.5-5-0.5c-11.5,0-21.5,8.9-21.5,24.5v37.1h-24v-80h24v9.4
	c1.1-2.7,5.5-11.7,19-11.7C108.3,39.5,111,39.8,113.3,40.3z M137.3,32.4c-7.8,0-14.2-6.2-14.2-14s6.4-14.2,14.2-14.2
	c7.8,0,14,6.4,14,14.2C151.4,26.2,145.1,32.4,137.3,32.4z M125.2,41.9h24.3v80h-24.3C125.2,121.9,125.2,41.9,125.2,41.9z
	 M249.2,82.2V122h-24.2V82.2c0-12.8-4.4-19.5-18.7-19.5c-10.3,0-18.1,8.4-18.3,19V122h-24.5V41.6h24.2V48c0.2-0.2,8.4-9,21.5-9
	C242.2,39,249.2,63.4,249.2,82.2z M354,41.8V122h-24v-6.4c-3,2.3-6.2,4.2-9.7,5.8c-5.3,2.2-10.9,3.3-16.7,3.3
	c-5.9,0-11.5-1.1-16.8-3.3c-5-2.2-9.7-5.3-13.6-9.2c-3.9-3.9-7-8.6-9.2-13.7c-2.2-5.3-3.3-10.9-3.3-16.7c0-5.8,1.1-11.4,3.3-16.7
	c2.2-5,5.3-9.7,9.2-13.6c3.9-3.9,8.6-7,13.6-9.2c5.3-2.2,10.9-3.4,16.8-3.4c5.8,0,11.4,1.2,16.7,3.4c3.4,1.6,6.7,3.4,9.7,5.8v-6.2
	L354,41.8L354,41.8z M325.1,81.7c0-11.9-9.7-21.5-21.5-21.5c-12,0-21.7,9.7-21.7,21.5c0,12,9.7,21.7,21.7,21.7
	C315.5,103.4,325.1,93.7,325.1,81.7z M375.4,90.6h26.4c0,0.2,1.1,13.9,19,13.9c9.7,0,18.4-5.8,18.4-12c0-12.9-23.6-13.9-30.3-15.3
	c-11.9-2.3-32-7.6-32-26.8c0-17.9,19.2-32.6,42.6-32.6C448,17.8,462,32.3,462,46H437c0-2.5-4.2-7.8-17.5-7.8
	c-8.9,0-16.2,5.5-16.2,12.3c0,8.3,15.8,8.3,21.4,9.2c14.2,2.7,40.9,6.1,40.9,32.9c0,17.5-20.6,32.1-44.8,32.1
	C389.6,124.6,375.3,104.3,375.4,90.6L375.4,90.6z M517.2,110.1c0,4.4-2,8.6-5.5,11.7c-3.4,3.1-8.1,4.8-12.9,4.8
	c-5,0-9.5-1.7-12.9-4.8c-3.7-3.1-5.6-7.3-5.6-11.7c0-4.5,1.9-8.7,5.6-12c3.4-3,8-4.7,12.9-4.7c4.8,0,9.5,1.7,12.9,4.7
	C515.2,101.3,517.2,105.7,517.2,110.1z"/>
</svg>
